<?xml version="1.0" standalone="no"?>
<!DOCTYPE svg PUBLIC "-//W3C//DTD SVG 20010904//EN"
 "http://www.w3.org/TR/2001/REC-SVG-20010904/DTD/svg10.dtd">
<svg version="1.0" xmlns="http://www.w3.org/2000/svg"
 width="512.000000pt" height="512.000000pt" viewBox="0 0 512.000000 512.000000"
 preserveAspectRatio="xMidYMid meet">
<metadata>
Created by potrace 1.15, written by Peter Selinger 2001-2017
</metadata>
<g transform="translate(0.000000,512.000000) scale(0.100000,-0.100000)"
fill="#000000" stroke="none">
<path d="M186 4934 c-134 -135 -171 -177 -171 -198 0 -14 0 -26 1 -26 1 0 394
393 394 394 0 1 -12 1 -26 1 -21 0 -63 -37 -198 -171z"/>
<path d="M288 4834 c-209 -209 -272 -277 -272 -297 -1 -14 0 -25 1 -24 4 3
593 590 593 591 0 1 -12 1 -26 1 -20 0 -82 -56 -296 -271z"/>
<path d="M388 4734 c-287 -287 -372 -377 -372 -397 -1 -14 0 -25 1 -24 3 2
793 791 793 791 0 1 -12 1 -26 1 -20 0 -102 -76 -396 -371z"/>
<path d="M488 4634 c-365 -365 -472 -477 -472 -497 -1 -14 0 -25 1 -24 3 2
993 991 993 992 0 0 -11 0 -25 0 -21 0 -122 -96 -497 -471z"/>
<path d="M588 4534 c-443 -444 -572 -577 -572 -597 -1 -14 0 -25 1 -24 3 2
1193 1191 1193 1192 0 0 -11 0 -25 0 -21 0 -142 -116 -597 -571z"/>
<path d="M919 4665 c-350 -351 -434 -441 -418 -443 17 -3 120 94 458 430 240
238 439 438 442 443 4 6 -3 10 -18 10 -19 0 -119 -95 -464 -440z"/>
<path d="M1119 4665 c-350 -351 -434 -441 -418 -443 17 -3 120 94 458 430 240
238 439 438 442 443 4 6 -3 10 -18 10 -19 0 -119 -95 -464 -440z"/>
<path d="M1319 4665 c-350 -351 -434 -441 -418 -443 17 -3 120 94 458 430 240
238 439 438 442 443 4 6 -3 10 -18 10 -19 0 -119 -95 -464 -440z"/>
<path d="M1519 4665 c-350 -351 -434 -441 -418 -443 17 -3 120 94 458 430 240
238 439 438 442 443 4 6 -3 10 -18 10 -19 0 -119 -95 -464 -440z"/>
<path d="M1719 4665 c-350 -351 -434 -441 -418 -443 17 -3 120 94 458 430 240
238 439 438 442 443 4 6 -3 10 -18 10 -19 0 -119 -95 -464 -440z"/>
<path d="M1919 4665 c-350 -351 -434 -441 -418 -443 17 -3 120 94 458 430 240
238 439 438 442 443 4 6 -3 10 -18 10 -19 0 -119 -95 -464 -440z"/>
<path d="M2119 4665 c-351 -352 -434 -441 -417 -443 14 -3 38 13 79 54 l58 57
4 -59 c3 -59 3 -59 5 14 l2 72 190 0 c173 0 190 -2 190 -17 0 -10 163 145 382
362 211 209 386 385 390 390 3 6 -4 10 -19 10 -20 0 -104 -79 -391 -367 l-366
-368 -76 0 -75 0 363 363 c199 199 364 364 366 367 2 3 -7 5 -21 5 -20 0 -103
-78 -391 -367 l-366 -368 -76 0 -75 0 363 363 c199 199 364 364 366 367 2 3
-7 5 -21 5 -19 0 -119 -94 -464 -440z"/>
<path d="M2719 4665 c-352 -353 -435 -441 -418 -443 15 -3 36 10 65 39 l43 42
4 -44 c2 -31 4 -22 5 29 l2 72 193 2 c112 1 166 4 129 7 l-63 6 365 364 c201
200 366 364 366 365 0 1 -12 1 -26 1 -21 0 -98 -72 -392 -367 l-366 -368 -76
0 -75 0 363 363 c199 199 364 364 366 367 2 3 -7 5 -21 5 -19 0 -119 -95 -464
-440z"/>
<path d="M3181 4727 c-283 -284 -377 -384 -379 -405 -3 -22 76 52 395 368 219
217 401 400 405 405 3 6 -4 10 -19 10 -20 0 -106 -81 -402 -378z"/>
<path d="M3319 4665 c-351 -352 -434 -441 -417 -443 14 -3 37 12 74 49 l53 52
4 -54 c3 -49 3 -47 5 19 l2 72 350 0 350 0 1 -72 c0 -49 3 -66 9 -53 4 11 26
38 49 60 23 21 41 45 41 52 0 10 41 13 190 13 189 0 190 0 190 -22 0 -17 97
74 387 362 214 212 391 390 395 395 3 6 -4 10 -19 10 -20 0 -104 -79 -391
-367 l-366 -368 -76 0 -75 0 363 363 c199 199 364 364 366 367 2 3 -7 5 -21 5
-20 0 -103 -78 -391 -367 l-366 -368 -76 0 -75 0 363 363 c199 199 364 364
366 367 2 3 -7 5 -21 5 -20 0 -110 -86 -426 -403 -401 -402 -402 -403 -405
-368 -3 32 -6 35 -38 38 -35 3 -35 4 330 367 201 200 366 364 366 365 0 1 -12
1 -26 1 -21 0 -98 -72 -392 -367 l-366 -368 -76 0 -75 0 363 363 c199 199 364
364 366 367 2 3 -7 5 -21 5 -20 0 -103 -78 -391 -367 l-366 -368 -76 0 -75 0
363 363 c199 199 364 364 366 367 2 3 -7 5 -21 5 -20 0 -103 -78 -391 -367
l-366 -368 -76 0 -75 0 363 363 c199 199 364 364 366 367 2 3 -7 5 -21 5 -19
0 -119 -94 -464 -440z"/>
<path d="M5105 5052 c-5 -4 -194 -193 -420 -420 -328 -331 -405 -413 -383
-410 41 5 813 776 813 812 0 14 0 26 0 26 0 0 -4 -4 -10 -8z"/>
<path d="M5105 4852 c-5 -4 -149 -148 -320 -320 -249 -252 -305 -313 -283
-310 20 2 103 78 320 294 236 234 293 297 293 318 0 14 0 26 0 26 0 0 -4 -4
-10 -8z"/>
<path d="M5105 4652 c-5 -4 -104 -103 -220 -220 -171 -174 -205 -213 -183
-210 19 2 81 57 220 194 155 153 193 196 193 217 0 15 0 27 0 27 0 0 -4 -4
-10 -8z"/>
<path d="M4995 4343 l-114 -118 -1 -1637 0 -1638 -2225 0 -2225 0 0 190 0 190
-95 0 -95 0 0 400 0 400 95 0 95 0 0 50 0 50 -95 0 -95 0 0 400 0 400 95 0 95
0 0 50 0 50 -95 0 -95 0 -2 453 c0 248 -3 438 -5 421 -3 -25 -28 -55 -111
-135 -85 -83 -107 -110 -107 -131 0 -16 1 -28 3 -28 1 0 50 48 107 108 l104
107 1 -76 0 -76 -108 -104 c-85 -83 -107 -110 -107 -131 0 -16 1 -28 3 -28 1
0 50 48 107 108 l104 107 1 -76 0 -76 -108 -104 c-85 -83 -107 -110 -107 -131
0 -16 1 -28 3 -28 1 0 50 48 107 108 l104 107 1 -76 0 -76 -108 -104 c-85 -83
-107 -110 -107 -131 0 -16 1 -28 3 -28 1 0 50 48 107 108 l104 107 1 -76 0
-76 -108 -104 c-83 -81 -107 -110 -107 -131 0 -15 4 -23 10 -20 6 3 52 50 104
104 l93 98 76 0 76 0 -39 -40 c-30 -31 -47 -40 -72 -40 -31 0 -33 -2 -33 -33
0 -30 -13 -46 -108 -138 -85 -83 -107 -110 -107 -131 0 -16 1 -28 3 -28 1 0
50 48 107 108 l104 107 1 -76 0 -76 -108 -104 c-85 -83 -107 -110 -107 -131 0
-16 1 -28 3 -28 1 0 50 48 107 108 l104 107 1 -76 0 -76 -108 -104 c-85 -83
-107 -110 -107 -131 0 -16 1 -28 3 -28 1 0 50 48 107 108 l104 107 1 -76 0
-76 -108 -104 c-85 -83 -107 -110 -107 -131 0 -16 1 -28 3 -28 1 0 50 48 107
108 l104 107 1 -52 c0 -45 3 -52 21 -55 17 -2 -2 -26 -107 -128 -103 -100
-129 -131 -129 -153 0 -15 1 -27 3 -27 1 0 50 48 107 108 l104 107 1 -76 0
-76 -108 -104 c-85 -83 -107 -110 -107 -131 0 -16 1 -28 3 -28 1 0 50 48 107
108 l104 107 1 -76 0 -76 -108 -104 c-85 -83 -107 -110 -107 -131 0 -16 1 -28
3 -28 1 0 50 48 107 108 l104 107 1 -76 0 -76 -108 -104 c-85 -83 -107 -110
-107 -131 0 -16 1 -28 3 -28 1 0 50 48 107 108 l104 107 1 -76 0 -76 -108
-104 c-83 -81 -107 -110 -107 -131 0 -15 4 -23 10 -20 6 3 52 50 104 104 l93
98 77 0 76 0 -179 -178 c-142 -140 -180 -183 -180 -204 -1 -16 -1 -28 0 -28 2
0 93 91 203 203 l201 202 0 -76 0 -76 -202 -200 c-163 -160 -203 -205 -203
-226 0 -15 1 -27 2 -27 1 0 92 91 202 203 l201 202 0 -76 0 -76 -202 -200
c-160 -157 -203 -205 -203 -225 0 -15 3 -24 7 -22 4 3 101 99 214 214 l207
210 76 0 76 0 -289 -288 c-230 -229 -290 -294 -290 -315 -1 -15 -1 -27 0 -27
1 0 142 142 315 315 l313 315 75 0 76 0 -389 -388 c-309 -309 -390 -394 -390
-415 -1 -15 -1 -27 0 -27 0 0 187 187 414 415 l414 415 76 0 75 0 -462 -463
c-255 -254 -465 -464 -467 -467 -2 -3 7 -5 21 -5 19 0 124 100 491 468 l466
467 76 0 75 0 -462 -463 c-255 -254 -465 -464 -467 -467 -2 -3 7 -5 21 -5 19
0 124 100 491 468 l466 467 76 0 75 0 -462 -463 c-255 -254 -465 -464 -467
-467 -2 -3 7 -5 21 -5 19 0 124 100 491 468 l466 467 76 0 75 0 -462 -463
c-255 -254 -465 -464 -467 -467 -2 -3 7 -5 21 -5 19 0 124 100 491 467 l466
468 76 0 75 0 -462 -463 c-255 -254 -465 -464 -467 -467 -2 -3 7 -5 21 -5 19
0 124 100 491 468 l466 467 76 0 75 0 -462 -463 c-255 -254 -465 -464 -467
-467 -2 -3 7 -5 21 -5 19 0 124 100 491 468 l466 467 76 0 75 0 -462 -463
c-255 -254 -465 -464 -467 -467 -2 -3 7 -5 21 -5 19 0 124 100 491 467 l466
468 76 0 75 0 -462 -463 c-255 -254 -465 -464 -467 -467 -2 -3 7 -5 21 -5 19
0 124 100 491 467 l466 468 76 0 75 0 -462 -463 c-255 -254 -465 -464 -467
-467 -2 -3 7 -5 21 -5 19 0 124 100 491 468 l466 467 76 0 75 0 -462 -463
c-255 -254 -465 -464 -467 -467 -2 -3 7 -5 21 -5 19 0 124 100 491 468 l466
467 76 0 75 0 -462 -463 c-255 -254 -465 -464 -467 -467 -2 -3 7 -5 21 -5 19
0 124 100 491 468 l466 467 76 0 75 0 -462 -463 c-255 -254 -465 -464 -467
-467 -2 -3 7 -5 21 -5 19 0 124 100 491 468 l466 467 76 0 75 0 -462 -463
c-255 -254 -465 -464 -467 -467 -2 -3 7 -5 21 -5 19 0 124 100 491 468 l466
467 76 0 75 0 -462 -463 c-255 -254 -465 -464 -467 -467 -2 -3 7 -5 21 -5 19
0 124 100 491 468 l466 467 76 0 75 0 -462 -463 c-255 -254 -465 -464 -467
-467 -2 -3 7 -5 21 -5 19 0 124 100 491 468 l466 467 76 0 75 0 -462 -463
c-255 -254 -465 -464 -467 -467 -2 -3 7 -5 21 -5 19 0 124 100 491 467 l466
468 76 0 75 0 -462 -463 c-255 -254 -465 -464 -467 -467 -2 -3 7 -5 21 -5 19
0 124 100 491 467 l466 468 76 0 75 0 -462 -463 c-255 -254 -465 -464 -467
-467 -2 -3 7 -5 21 -5 19 0 124 100 491 468 l466 467 76 0 75 0 -462 -463
c-255 -254 -465 -464 -467 -467 -2 -3 7 -5 21 -5 19 0 124 100 491 468 l466
467 76 0 75 0 -462 -463 c-255 -254 -465 -464 -467 -467 -2 -3 7 -5 21 -5 19
0 124 100 491 468 344 344 472 467 489 467 17 0 23 6 23 23 0 17 32 55 113
133 89 87 112 115 112 137 0 15 -1 27 -3 27 -1 0 -52 -51 -112 -112 l-109
-113 -1 76 0 76 113 109 c89 87 112 115 112 137 0 15 -1 27 -3 27 -1 0 -52
-51 -112 -112 l-109 -113 -1 76 0 76 113 109 c89 87 112 115 112 137 0 15 -1
27 -3 27 -1 0 -52 -51 -112 -112 l-109 -113 -1 76 0 76 113 109 c89 87 112
115 112 137 0 15 -1 27 -3 27 -1 0 -52 -51 -112 -112 l-109 -113 -1 76 0 76
113 109 c89 87 112 115 112 137 0 15 -1 27 -3 27 -1 0 -52 -51 -112 -112
l-109 -113 -1 76 0 76 113 109 c89 87 112 115 112 137 0 15 -1 27 -3 27 -1 0
-52 -51 -112 -112 l-109 -113 -1 76 0 76 113 109 c89 87 112 115 112 137 0 15
-1 27 -3 27 -1 0 -52 -51 -112 -112 l-109 -113 -1 76 0 76 113 109 c89 87 112
115 112 137 0 15 -1 27 -3 27 -1 0 -52 -51 -112 -112 l-109 -113 -1 76 0 76
113 109 c89 87 112 115 112 137 0 15 -1 27 -3 27 -1 0 -52 -51 -112 -112
l-109 -113 -1 76 0 76 113 109 c89 87 112 115 112 137 0 15 -1 27 -3 27 -1 0
-52 -51 -112 -112 l-109 -113 -1 76 0 76 113 109 c89 87 112 115 112 137 0 15
-1 27 -3 27 -1 0 -52 -51 -112 -112 l-109 -113 -1 76 0 76 113 109 c89 87 112
115 112 137 0 15 -1 27 -3 27 -1 0 -52 -51 -112 -112 l-109 -113 -1 76 0 76
113 109 c89 87 112 115 112 137 0 15 -1 27 -3 27 -1 0 -52 -51 -112 -112
l-109 -113 -1 76 0 76 113 109 c89 87 112 115 112 137 0 15 -1 27 -3 27 -1 0
-52 -51 -112 -112 l-109 -113 -1 76 0 76 113 109 c89 87 112 115 112 137 0 15
-1 27 -3 27 -1 0 -52 -51 -112 -112 l-109 -113 -1 76 0 76 113 109 c89 87 112
115 112 137 0 15 -1 27 -3 27 -1 0 -52 -51 -112 -112 l-109 -113 -1 76 0 76
113 109 c89 87 112 115 112 137 0 15 -1 27 -3 27 -1 0 -54 -53 -117 -117z"/>
<path d="M3130 4248 c0 -20 1 -20 18 -5 14 13 38 17 92 17 l74 0 -92 -92 c-67
-67 -92 -99 -92 -117 0 -24 2 -23 45 19 40 39 45 42 45 22 0 -20 5 -22 52 -22
l53 0 -98 -98 c-84 -85 -116 -132 -89 -132 4 0 82 74 172 165 155 156 166 165
202 165 l38 0 0 -45 0 -45 -47 -2 c-40 -1 -42 -2 -14 -5 l34 -5 -114 -114
c-98 -98 -110 -114 -89 -114 36 0 330 294 330 330 0 23 -3 22 -45 -20 l-45
-44 0 37 c0 36 -1 37 -37 37 l-37 0 39 40 c31 32 46 40 84 43 25 2 -72 4 -216
5 l-263 2 0 -22z m293 -80 l-93 -93 -50 3 -50 4 0 44 0 44 48 1 c26 1 39 3 28
6 -16 4 -13 10 20 44 38 39 39 39 113 39 l76 0 -92 -92z"/>
<path d="M3932 4198 l3 -73 95 0 95 0 0 70 0 70 -98 3 -98 3 3 -73z"/>
<path d="M520 4080 c0 -27 4 -50 8 -50 4 0 28 20 52 45 l44 45 75 0 75 0 -44
-45 c-42 -43 -43 -45 -19 -45 16 0 40 15 69 45 l44 45 75 0 75 0 -44 -45 c-42
-43 -43 -45 -19 -45 16 0 40 15 69 45 l44 45 75 0 75 0 -44 -45 c-42 -43 -43
-45 -19 -45 16 0 40 15 69 45 l44 45 75 0 75 0 -64 -65 c-61 -61 -65 -64 -72
-43 -3 13 -6 -181 -7 -429 l-1 -453 -355 0 -355 0 0 -50 0 -50 285 0 285 0 0
-400 0 -400 -285 0 -285 0 0 -50 0 -50 285 0 285 0 0 -400 0 -400 -285 0 -285
0 0 -50 0 -50 2135 0 2135 0 0 1450 0 1450 -287 -2 c-159 -1 -253 -4 -210 -7
l78 -6 -76 -75 c-54 -53 -75 -82 -75 -100 0 -21 14 -11 103 78 l102 102 75 0
74 0 -39 -41 c-22 -22 -58 -48 -80 -58 -44 -20 -95 -73 -95 -99 0 -9 8 -1 18
18 21 42 72 78 123 86 26 4 50 19 80 50 l43 44 75 0 75 0 -64 -65 c-53 -54
-66 -62 -79 -53 -9 7 -3 -2 13 -20 28 -30 43 -42 32 -24 -3 5 19 33 49 62 l55
54 0 -75 0 -75 -45 -44 c-25 -24 -45 -40 -45 -35 0 6 -9 -5 -20 -23 -11 -18
-33 -40 -50 -50 -16 -11 -28 -21 -25 -23 2 -3 -121 -130 -274 -283 -277 -277
-279 -279 -302 -262 -13 9 -28 16 -34 16 -5 0 4 -9 22 -20 32 -19 50 -44 64
-89 5 -18 8 -20 8 -8 1 10 -3 26 -8 36 -8 14 51 78 350 377 l359 359 0 -75 0
-75 -177 -177 -178 -178 -57 0 -58 0 0 -58 0 -57 -115 -115 c-85 -85 -115
-121 -115 -140 0 -21 16 -8 115 90 l115 115 0 -75 0 -75 -115 -115 c-85 -85
-115 -121 -115 -140 0 -21 16 -8 115 90 l115 115 0 -75 0 -75 -115 -115 c-85
-85 -115 -121 -115 -140 0 -21 16 -8 115 90 l115 115 0 -75 0 -75 -115 -115
c-85 -85 -115 -121 -115 -140 0 -21 16 -8 115 90 l115 115 0 -75 0 -75 -206
-205 c-172 -171 -202 -206 -183 -208 17 -3 61 35 206 180 l183 183 0 -75 0
-75 -107 -107 c-92 -92 -104 -108 -83 -108 17 0 49 24 107 82 l83 83 0 -38 c0
-36 1 -37 37 -37 l37 0 -54 -55 c-38 -38 -56 -51 -62 -42 -4 6 -8 -149 -8
-345 l0 -358 -1275 0 -1275 0 0 355 c0 335 1 355 18 355 10 0 38 20 62 45 l44
45 75 0 75 0 -44 -45 c-42 -42 -43 -45 -20 -45 19 0 135 110 517 492 l493 493
0 -75 0 -75 -417 -417 c-340 -340 -413 -418 -393 -418 19 0 111 86 417 392
l393 393 0 -75 0 -75 -317 -317 c-260 -260 -313 -318 -293 -318 19 0 91 66
317 292 l293 293 0 -75 0 -75 -217 -217 c-180 -180 -214 -218 -193 -218 19 0
71 46 217 192 l193 193 0 -75 0 -75 -117 -117 c-101 -101 -114 -118 -93 -118
19 0 51 25 119 94 52 52 99 92 104 89 6 -4 8 1 4 11 -4 10 -7 210 -8 444 0
246 -4 419 -9 407 -5 -11 -195 -207 -424 -435 l-416 -415 0 75 0 75 582 582
583 583 75 0 75 0 -160 -160 c-87 -87 -168 -161 -179 -163 -12 -2 188 -5 444
-5 256 0 457 3 448 6 -14 6 34 59 237 262 l255 255 68 -2 67 -1 -65 7 c-36 4
-77 15 -92 25 -27 17 -68 88 -68 117 0 7 -152 -138 -338 -324 l-337 -337 -75
0 -75 0 305 305 c251 251 300 305 280 305 -20 0 -93 -68 -330 -305 l-305 -305
-75 0 -75 0 160 160 160 160 47 0 48 0 0 47 c0 47 2 49 97 145 84 84 94 98 73
98 -17 0 -47 -22 -97 -72 l-73 -72 0 75 0 75 45 44 c30 29 45 53 45 69 0 24
-2 23 -45 -19 l-45 -44 0 76 0 75 45 42 46 42 -48 -3 -48 -3 -3 -282 -2 -283
-350 0 -350 0 -2 283 -3 282 -117 3 c-106 2 -118 1 -118 -15 0 -13 3 -14 12
-5 7 7 42 12 87 12 l76 0 -88 -88 c-62 -62 -87 -94 -87 -112 0 -21 17 -8 115
90 l115 115 0 -75 0 -75 -115 -115 c-85 -85 -115 -121 -115 -140 0 -21 16 -8
115 90 l115 115 0 -75 0 -75 -115 -115 c-85 -85 -115 -121 -115 -140 0 -21 16
-8 115 90 l115 115 0 -75 0 -75 -115 -115 c-85 -85 -115 -121 -115 -140 0 -21
19 -6 128 103 l127 127 75 0 74 0 -204 -208 -205 -209 -187 -1 -188 -2 0 501
0 500 -47 -3 -48 -3 -3 -430 -2 -430 -162 -162 c-90 -90 -170 -163 -178 -163
-8 -1 -1 -7 15 -14 17 -7 43 -28 58 -45 15 -18 27 -28 27 -23 0 5 -12 22 -26
37 l-26 28 191 191 191 191 0 -75 0 -76 -165 -163 -164 -164 -3 -309 -3 -310
-37 -34 -38 -34 -262 0 c-289 0 -297 2 -336 60 l-23 34 3 312 c2 172 0 307 -4
301 -4 -7 -8 -39 -8 -72 l0 -60 -135 -135 -135 -135 0 75 0 75 157 155 c86 85
150 146 142 135 -8 -11 3 -5 24 13 21 17 45 32 55 33 11 0 12 2 4 6 -7 3 -25
-3 -40 -12 -15 -10 52 63 148 161 l175 179 -5 430 -5 430 -617 3 -618 2 0 -50z
m1011 -4 l-42 -43 44 -11 c53 -14 95 -45 114 -86 8 -19 12 -22 10 -9 -3 15 9
34 44 69 l49 48 0 -74 0 -75 -255 -255 -255 -255 0 75 0 75 103 103 102 102
50 0 c30 0 65 8 85 19 37 19 80 73 80 100 0 8 -10 -5 -22 -29 -14 -27 -36 -50
-58 -62 -39 -20 -129 -24 -163 -7 -92 47 -113 151 -44 219 28 29 29 31 5 16
-30 -19 -58 -72 -58 -108 0 -15 -15 -39 -40 -63 l-40 -39 0 74 0 75 92 92 93
93 74 0 75 0 -43 -44z m219 31 c0 -7 -26 -39 -59 -71 l-58 -57 -38 25 c-21 14
-43 26 -48 26 -6 0 9 20 33 45 43 44 46 45 107 45 45 0 63 -4 63 -13z m2642
-308 l26 -36 -266 -266 -267 -267 -75 0 -75 0 310 310 c170 170 312 306 315
302 3 -4 18 -23 32 -43z m-2897 -358 l-255 -256 0 75 0 75 253 253 252 252 3
-72 3 -72 -256 -255z m-170 231 l-80 -83 -3 72 -3 72 46 47 46 47 37 -36 38
-36 -81 -83z m3378 -224 l-78 -78 -75 0 -75 0 150 150 150 150 3 -72 3 -72
-78 -78z m-3275 -275 l-323 -323 -3 72 -3 72 323 323 323 323 3 -72 3 -72
-323 -323z m2017 217 l-160 -160 -75 0 -75 0 160 160 160 160 75 0 75 0 -160
-160z m-2017 -417 l-323 -323 -3 72 -3 72 323 323 323 323 3 -72 3 -72 -323
-323z m3262 -223 l0 -610 -185 0 -185 0 0 610 0 610 185 0 185 0 0 -610z
m-2355 130 l-240 -240 -3 72 -3 72 168 168 168 168 75 0 75 0 -240 -240z m100
-100 l-340 -340 -3 72 -3 72 268 268 268 268 75 0 75 0 -340 -340z m-1200
-399 l-135 -136 0 75 0 75 133 133 132 132 3 -72 3 -72 -136 -135z m0 -200
l-135 -136 0 48 c0 45 -1 47 -27 47 -25 0 -10 18 132 160 l160 160 3 -72 3
-72 -136 -135z m3290 -310 l-255 -256 0 75 0 75 182 182 c162 163 186 183 215
183 30 0 33 3 33 32 0 24 10 42 38 71 l37 38 3 -72 3 -73 -256 -255z m-3120
309 c13 -14 -4 -34 -145 -175 l-160 -160 0 75 0 75 132 132 132 132 13 -32 c8
-17 20 -38 28 -47z m172 -54 c1 -1 -106 -110 -237 -241 l-240 -240 0 75 0 75
171 171 171 172 67 -6 c36 -2 67 -5 68 -6z m-132 -336 l-340 -340 -3 72 -3 72
268 268 268 268 75 0 75 0 -340 -340z m2985 185 l-155 -155 -3 72 -3 72 83 83
83 83 75 0 75 0 -155 -155z m95 -304 l-255 -256 0 75 0 75 253 253 252 252 3
-72 3 -72 -256 -255z m-2937 62 c-91 -92 -118 -113 -143 -114 -26 -1 -24 -2
12 -9 23 -5 51 -14 62 -19 25 -14 61 -64 61 -85 0 -25 11 -19 67 36 l53 52 0
-74 0 -75 -102 -102 -103 -103 -74 0 -75 0 39 40 c28 28 48 40 70 41 23 1 19
3 -17 9 -26 5 -52 12 -59 16 -8 5 -9 3 -4 -5 5 -8 -8 -29 -36 -57 l-43 -44
-76 0 -75 0 82 82 81 81 27 -29 26 -29 -26 39 c-17 27 -25 53 -25 83 0 52 12
79 48 111 24 21 25 23 4 12 -32 -16 -62 -69 -62 -110 0 -31 -12 -47 -102 -137
l-103 -103 -74 0 -75 0 39 40 c32 33 46 40 77 40 37 0 38 1 38 37 0 36 13 51
298 336 l297 297 3 -72 3 -72 -113 -113z m3125 -75 c-50 -51 -73 -68 -88 -64
l-20 5 20 -15 c11 -8 28 -25 37 -37 16 -20 17 -20 12 -2 -4 15 10 35 51 75
l55 54 0 -75 c0 -74 0 -75 -39 -113 -39 -38 -39 -38 -44 -15 -3 20 -5 18 -6
-7 -1 -39 -38 -94 -75 -114 -16 -8 -49 -36 -74 -62 l-45 -48 -76 0 -75 0 54
55 c36 37 60 53 70 49 33 -14 53 -14 24 -1 -34 16 -74 61 -75 86 0 9 -3 11 -5
4 -3 -7 0 -22 6 -34 11 -19 6 -28 -56 -90 l-68 -69 -75 0 -75 0 39 40 c23 24
48 40 62 40 17 0 23 6 23 23 0 15 23 45 64 86 60 60 65 62 69 40 5 -24 5 -24
4 1 -2 59 57 126 124 139 26 5 34 9 19 10 -21 1 -8 17 100 126 l125 125 3 -72
3 -72 -68 -68z m-3069 -69 l-57 -57 -36 36 -36 37 90 93 90 93 3 -72 3 -72
-57 -58z m3094 -306 l-42 -43 -75 0 -76 0 115 115 115 115 3 -71 3 -72 -43
-44z"/>
<path d="M1908 4121 l63 -6 -61 -60 c-42 -41 -60 -67 -60 -84 0 -23 11 -15 88
62 l87 87 75 0 75 0 -163 -163 c-122 -122 -162 -168 -162 -187 0 -21 31 6 185
160 l185 185 0 -75 0 -75 -185 -185 c-131 -131 -185 -191 -185 -207 l0 -23
190 0 190 0 0 290 0 290 -192 -2 c-113 -1 -167 -4 -130 -7z m210 -458 l-103
-103 -75 0 -75 0 175 175 175 175 3 -72 3 -72 -103 -103z"/>
<path d="M3932 3983 l3 -48 95 0 95 0 3 48 3 47 -101 0 -101 0 3 -47z"/>
<path d="M332 3723 c1 -120 3 -189 5 -153 l4 65 147 148 147 147 75 0 75 0
-210 -210 c-175 -175 -206 -210 -185 -210 19 0 74 49 235 210 l210 210 75 0
75 0 -210 -210 c-175 -175 -206 -210 -185 -210 19 0 74 49 235 210 l210 210
47 0 c46 0 48 -1 48 -27 0 -23 -35 -63 -182 -210 -152 -152 -179 -183 -158
-183 19 0 64 39 182 157 l158 158 0 -75 0 -75 -82 -82 c-73 -73 -80 -83 -57
-83 17 0 42 17 79 55 l55 56 6 -58 c3 -32 6 40 7 160 l2 217 -405 0 -405 0 2
-217z m133 87 l-120 -120 -3 71 -3 72 48 49 47 48 75 0 76 0 -120 -120z"/>
<path d="M3158 3741 l34 -6 -31 -29 c-58 -56 -56 -56 232 -54 144 1 242 3 218
5 l-44 4 44 45 43 44 -264 -1 c-146 -1 -250 -4 -232 -8z"/>
<path d="M337 3413 c-4 -3 -7 -48 -7 -100 l0 -93 405 0 406 0 -3 98 -3 97
-396 3 c-217 1 -398 -1 -402 -5z m238 -93 l-90 -90 -75 0 -75 0 90 90 90 90
75 0 75 0 -90 -90z m200 0 l-90 -90 -75 0 -75 0 90 90 90 90 75 0 75 0 -90
-90z m200 0 l-90 -90 -75 0 -75 0 90 90 90 90 75 0 75 0 -90 -90z m155 23 c0
-55 -4 -71 -22 -90 -19 -20 -31 -23 -97 -23 l-76 0 90 90 c49 50 93 90 97 90
5 0 8 -30 8 -67z"/>
<path d="M1760 3105 c-139 -139 -161 -165 -140 -165 19 0 65 40 190 165 139
139 161 165 140 165 -19 0 -65 -40 -190 -165z"/>
<path d="M1960 3105 c-139 -139 -161 -165 -140 -165 19 0 65 40 190 165 139
139 161 165 140 165 -19 0 -65 -40 -190 -165z"/>
<path d="M3047 3112 c-15 -16 -17 -55 -17 -336 0 -307 4 -356 31 -356 6 0 3 7
-5 16 -10 9 -16 33 -16 57 0 42 2 44 293 335 l292 292 75 0 75 0 -350 -350
c-287 -287 -345 -350 -325 -350 20 0 102 77 375 350 l350 350 67 0 c38 0 68
-3 68 -7 0 -5 -154 -162 -342 -350 -281 -281 -338 -343 -318 -343 20 0 97 72
353 328 180 180 327 334 327 343 0 38 -10 39 -470 39 -420 0 -448 -1 -463 -18z
m163 -157 l-165 -165 -3 72 -3 72 93 93 93 93 75 0 75 0 -165 -165z m100 -100
l-265 -265 -3 72 -3 72 193 193 193 193 75 0 75 0 -265 -265z"/>
<path d="M330 2725 l0 -215 335 0 335 0 0 215 0 215 -335 0 -335 0 0 -215z
m215 165 c-34 -34 -45 -40 -82 -40 l-43 0 0 -43 c0 -37 -6 -48 -40 -82 l-40
-39 0 74 0 74 47 48 47 48 75 0 75 0 -39 -40z m115 -85 c-81 -81 -126 -120
-128 -110 -3 11 -17 15 -58 15 l-54 0 0 -55 c0 -45 3 -55 17 -55 12 0 6 -11
-22 -40 -21 -22 -47 -40 -57 -40 -15 0 -18 9 -18 57 0 56 2 59 52 110 47 48
57 53 95 53 l43 0 0 42 c0 38 6 48 52 95 l52 53 76 0 75 0 -125 -125z m120
-80 l-205 -205 -74 0 -75 0 39 40 c21 22 45 40 52 40 7 0 13 6 13 12 0 7 69
81 152 165 l153 153 75 0 75 0 -205 -205z m103 -97 l-108 -108 -75 0 -75 0
180 180 180 180 3 -72 3 -72 -108 -108z"/>
<path d="M3725 2670 c-207 -207 -246 -250 -225 -250 37 0 483 447 478 479 -2
18 -47 -23 -253 -229z"/>
<path d="M1492 2834 c-13 -9 -22 -26 -22 -42 l0 -26 38 37 c37 36 40 37 112
37 l75 0 -113 -113 c-82 -82 -112 -119 -112 -137 0 -21 22 -3 138 113 l137
137 75 0 75 0 -203 -202 c-162 -162 -204 -200 -212 -188 -5 8 -10 10 -10 4 0
-15 22 -34 40 -34 8 0 112 97 230 215 l215 215 -220 0 c-183 0 -224 -3 -243
-16z"/>
<path d="M330 2370 l0 -50 335 0 335 0 0 50 0 50 -335 0 -335 0 0 -50z"/>
<path d="M2959 2194 c5 -11 17 -27 26 -34 14 -12 10 -19 -37 -67 -49 -49 -51
-53 -27 -53 16 0 40 15 69 45 l44 45 75 0 75 0 -44 -45 c-42 -43 -43 -45 -19
-45 16 0 40 15 69 45 l44 45 75 0 75 0 -44 -45 c-42 -43 -43 -45 -19 -45 16 0
40 15 69 45 l44 45 75 0 75 0 -44 -45 c-42 -43 -43 -45 -19 -45 16 0 40 15 69
45 l44 45 75 0 75 0 -44 -45 c-42 -43 -43 -45 -19 -45 16 0 40 15 69 45 43 44
44 44 119 48 42 1 -137 4 -397 5 -319 1 -480 6 -495 13 -12 6 -33 23 -45 37
-18 20 -21 22 -13 6z"/>
<path d="M330 1825 l0 -215 335 0 335 0 0 215 0 215 -335 0 -335 0 0 -215z
m350 0 l-205 -205 -67 0 c-38 0 -68 4 -68 8 0 4 16 23 35 42 32 31 38 33 96
31 l60 -2 -2 61 -3 61 105 105 104 104 75 0 75 0 -205 -205z m310 158 l0 -48
-157 -157 -158 -158 -75 0 -75 0 205 205 c167 168 210 205 232 205 27 0 28 -2
28 -47z m-57 -305 l-57 -58 -76 0 -75 0 130 130 130 130 3 -72 3 -71 -58 -59z"/>
<path d="M1800 1850 l0 -100 1188 2 c653 1 1163 4 1134 7 l-53 6 51 50 c34 33
50 57 50 75 0 22 -8 16 -76 -53 l-76 -77 -76 0 -75 0 59 64 c56 60 62 64 109
66 l50 3 -39 6 c-37 6 -38 7 -19 23 12 11 40 18 83 21 36 2 -469 4 -1122 5
l-1188 2 0 -100z m375 70 c-12 -13 -31 -20 -57 -20 -37 0 -38 -1 -38 -37 0
-28 -8 -45 -32 -70 -30 -32 -35 -33 -107 -33 -71 0 -73 1 -58 18 11 12 17 36
17 65 l0 47 45 0 45 0 2 -47 2 -48 3 50 c6 77 29 95 121 95 74 0 75 0 57 -20z
m200 0 c-13 -14 -31 -20 -62 -20 l-43 0 0 -43 c0 -34 -6 -49 -28 -70 -25 -24
-35 -27 -101 -27 -66 0 -72 2 -60 16 7 9 12 35 10 65 l-2 49 45 0 46 0 2 -47
1 -48 4 45 c3 31 12 53 31 73 24 25 32 27 100 27 74 0 75 0 57 -20z m200 0
c-13 -15 -31 -20 -67 -20 l-48 0 0 -47 c0 -74 -25 -93 -118 -93 -74 0 -75 0
-57 20 10 11 13 20 7 20 -7 0 -12 18 -12 45 l0 45 45 0 45 0 2 -47 c1 -48 1
-48 5 -8 3 28 14 50 36 73 29 30 34 32 106 32 73 0 74 0 56 -20z m200 0 c-14
-15 -31 -20 -72 -20 l-53 0 0 -52 c0 -76 -15 -88 -108 -88 -74 0 -75 0 -57 20
16 18 16 20 2 20 -13 0 -17 10 -17 45 l0 45 45 0 c36 0 45 -3 45 -17 0 -13 12
-6 42 25 43 42 43 42 117 42 73 0 74 0 56 -20z m198 -2 c-18 -18 -32 -21 -78
-19 l-57 3 3 -56 c4 -77 -7 -86 -99 -86 -74 0 -75 0 -57 20 18 19 17 20 -3 20
-19 0 -22 6 -22 45 l0 45 45 0 c40 0 45 -3 45 -22 0 -20 6 -17 47 25 l48 47
75 0 74 0 -21 -22z m189 -11 c-18 -19 -32 -43 -32 -57 0 -22 6 -19 58 33 l58
57 74 0 74 0 -37 -38 c-22 -23 -37 -48 -37 -62 0 -22 7 -18 63 38 l63 62 74 0
74 0 -42 -43 c-26 -26 -42 -52 -42 -67 0 -23 2 -22 43 18 39 38 48 42 97 44
l55 2 -49 3 c-47 4 -48 5 -30 24 14 16 31 19 93 19 l75 0 -46 -47 c-25 -27
-48 -57 -50 -68 -2 -11 -12 -21 -25 -23 -11 -2 -29 -12 -39 -23 -14 -16 -31
-19 -92 -19 -74 0 -75 0 -57 20 18 19 17 20 -7 20 -14 0 -33 -9 -43 -20 -15
-17 -31 -20 -93 -20 -74 0 -75 0 -57 20 18 19 17 20 -7 20 -14 0 -33 -9 -43
-20 -15 -17 -31 -20 -93 -20 -74 0 -75 0 -57 20 18 19 17 20 -7 20 -14 0 -33
-9 -43 -20 -15 -17 -31 -20 -93 -20 -74 0 -75 0 -57 20 18 20 17 20 -8 20 -25
0 -27 3 -27 45 l0 45 45 0 c42 0 45 -2 45 -27 0 -27 1 -26 52 25 l53 52 74 0
75 0 -32 -33z m782 -19 c-28 -29 -54 -61 -57 -70 -4 -10 -13 -18 -20 -18 -8 0
-22 -9 -32 -20 -15 -17 -31 -20 -94 -20 l-75 0 64 65 c61 62 67 65 115 67 l50
1 -43 4 c-43 4 -44 5 -26 24 14 16 31 19 93 19 l75 0 -50 -52z"/>
<path d="M1800 1540 l0 -120 1188 1 c653 0 1179 4 1169 8 -17 6 -17 8 -3 20 9
7 16 25 16 39 0 26 -1 25 -43 -16 -43 -42 -43 -42 -117 -42 l-75 0 116 115
116 115 -1184 0 -1183 0 0 -120z m195 0 c-101 -101 -113 -110 -147 -110 -37 0
-38 1 -38 37 0 33 9 46 72 110 l72 73 76 0 75 0 -110 -110z m200 0 l-110 -110
-75 0 -75 0 110 110 110 110 75 0 75 0 -110 -110z m200 0 l-110 -110 -75 0
-75 0 110 110 110 110 75 0 75 0 -110 -110z m200 0 l-110 -110 -75 0 -75 0
110 110 110 110 75 0 75 0 -110 -110z m200 0 l-110 -110 -75 0 -75 0 110 110
110 110 75 0 75 0 -110 -110z m200 0 l-110 -110 -75 0 -75 0 110 110 110 110
75 0 75 0 -110 -110z m200 0 l-110 -110 -75 0 -75 0 110 110 110 110 75 0 75
0 -110 -110z m200 0 l-110 -110 -75 0 -75 0 110 110 110 110 75 0 75 0 -110
-110z m200 0 l-110 -110 -75 0 -75 0 110 110 110 110 75 0 75 0 -110 -110z
m200 0 l-110 -110 -75 0 -75 0 110 110 110 110 75 0 75 0 -110 -110z m200 0
l-110 -110 -75 0 -75 0 110 110 110 110 75 0 75 0 -110 -110z"/>
<path d="M330 1470 l0 -50 335 0 335 0 0 50 0 50 -335 0 -335 0 0 -50z"/>
<path d="M520 1090 l0 -50 2135 0 2135 0 0 50 0 50 -2135 0 -2135 0 0 -50z"/>
<path d="M4590 535 c-289 -289 -526 -526 -527 -528 -1 -1 10 -2 23 -2 36 0
1027 991 1029 1029 0 14 0 26 0 26 0 0 -237 -236 -525 -525z"/>
<path d="M4689 435 c-233 -234 -425 -427 -426 -428 -1 -1 10 -2 24 -1 38 1
828 792 828 828 0 15 0 26 -1 26 0 0 -191 -191 -425 -425z"/>
<path d="M4789 335 c-178 -179 -325 -326 -326 -328 -1 -1 10 -2 24 -2 36 0
626 590 628 629 0 14 0 26 0 26 -1 0 -147 -146 -326 -325z"/>
<path d="M4887 233 c-125 -124 -227 -227 -227 -227 0 -1 12 -1 27 0 39 1 428
390 428 428 0 14 0 26 -1 26 0 0 -103 -102 -227 -227z"/>
</g>
</svg>
